# Blender v2.78 (sub 0) OBJ File: 'Huge Skylight.blend'
# www.blender.org
mtllib Huge Skylight.mtl
o UModeler_Object.001
v 1.688397 0.166076 -5.402128
v 2.088397 0.000002 -6.202128
v 3.674829 0.000001 -6.202128
v 3.074828 0.166076 -5.402128
v 1.688397 0.488328 -5.402128
v 3.074828 0.488328 -5.402128
v 4.461260 0.166076 -2.574410
v 4.461260 0.488328 -2.574410
v 4.461260 0.488328 -3.988269
v 4.461260 0.166076 -3.988269
v 5.261260 0.000001 -2.974410
v 5.261260 0.000001 -4.588269
v 3.974591 -0.045588 -4.915459
v 5.261260 0.000001 -6.202128
v 3.974591 0.276665 -4.915459
v -1.084466 0.687571 -5.850469
v -1.084466 0.365319 -5.850469
v -1.084466 0.000002 -6.202128
v -7.430196 0.000002 -6.202128
v -6.893975 0.154688 -5.669047
v -6.893975 0.476941 -5.669047
v 5.261260 -0.000000 6.708746
v -1.084466 0.000000 6.708746
v -1.203096 0.168320 5.788416
v 4.223998 0.170565 5.668097
v 4.223998 0.492818 5.668097
v -1.203096 0.490573 5.788416
v -3.916646 0.167198 5.848576
v -3.916646 0.489450 5.848576
v -4.257326 0.000000 6.708746
v -6.696136 0.163229 3.014296
v -6.382496 0.168114 4.455406
v -7.430196 0.000001 5.094887
v -7.430196 0.000001 3.481026
v -7.430196 0.000001 6.708746
v -6.630197 0.166075 5.908747
v -6.630197 0.488327 5.908747
v -6.382496 0.490367 4.455406
v -6.696136 0.485481 3.014296
v -5.268456 0.487135 6.113346
v -5.268456 0.164883 6.113346
v -5.843756 0.000001 6.708746
v -6.855577 0.481481 0.121886
v -6.855577 0.159229 0.121886
v -7.430196 0.000001 0.253306
v 4.540914 -0.007682 0.167656
v 5.261260 0.000001 0.253306
v 4.540914 0.314570 0.167656
v 15.231951 0.400014 -14.098209
v -15.042796 0.400015 -14.098209
v -15.042796 0.400013 11.675917
v 15.231951 0.400010 11.675917
v -7.515756 0.400014 6.385117
v -7.515756 0.400015 -6.525755
v 5.175693 0.400013 6.385117
v 5.175693 0.400015 -6.525755
v -7.515756 0.393653 0.640686
v 15.231951 0.400012 -1.211146
v 5.439089 0.400014 -0.070324
v -15.042796 0.400014 0.891686
v -11.225997 0.217685 0.764406
v -10.564715 0.396229 5.110706
v -15.042796 0.400014 -2.128699
v -11.465945 0.396991 -0.812684
v -12.056386 0.706870 -4.693404
v 7.767554 0.329788 -4.888138
v 7.767554 0.400014 -4.888138
v 7.494731 0.400014 -4.888138
v 7.494731 0.329788 -4.888138
v 7.767554 0.329788 -5.478709
v 7.767554 0.400014 -5.478709
v 7.494731 0.329788 -5.478709
v 7.494731 0.400014 -5.478709
v 3.121135 0.278826 -7.872409
v 3.121135 0.400014 -7.872409
v 2.761442 0.400014 -7.872409
v 2.761442 0.278826 -7.872409
v 3.121135 0.278826 -8.669948
v 3.121135 0.400014 -8.669948
v 2.761442 0.278826 -8.669948
v 2.761442 0.400014 -8.669948
v -6.423676 0.278620 9.197077
v -6.423676 0.400013 9.197077
v -6.423676 0.400013 8.631886
v -6.423676 0.278620 8.631886
v -6.122356 0.278620 9.197077
v -6.122356 0.400013 9.197077
v -6.122356 0.278620 8.631886
v -6.122356 0.400013 8.631886
v -5.318906 0.285690 -9.397174
v -5.318906 0.400016 -9.397174
v -5.318906 0.400015 -8.832593
v -5.318906 0.285690 -8.832593
v -5.562606 0.285690 -9.397174
v -5.562606 0.400016 -9.397174
v -5.562606 0.400015 -8.832593
v 9.472051 -0.094398 1.295536
v 15.231951 0.400011 4.815346
v 15.231951 0.400010 9.743647
v 8.312585 0.400012 -0.405074
v 6.949083 0.400013 -0.246224
v 4.223998 0.170565 5.668097
v 4.223998 0.170565 5.668097
v 4.223998 0.492818 5.668097
v 7.767554 0.329788 -4.888138
v 7.767554 0.329788 -4.888138
v 7.767554 0.400014 -4.888138
v 7.767554 0.400014 -4.888138
v 5.261260 -0.000000 6.708746
v 5.261260 -0.000000 6.708746
v 5.175693 0.400013 6.385117
v 5.175693 0.400013 6.385117
v 5.439089 0.400014 -0.070324
v 5.439089 0.400014 -0.070324
v 4.461260 0.166076 -2.574410
v 4.461260 0.166076 -3.988269
v 7.767554 0.329788 -5.478709
v 7.767554 0.329788 -5.478709
v 7.494731 0.329788 -5.478709
v 7.494731 0.329788 -5.478709
v -1.203096 0.168320 5.788416
v 3.121135 0.278826 -8.669948
v 3.121135 0.278826 -8.669948
v 2.761442 0.278826 -8.669948
v 2.761442 0.278826 -8.669948
v -5.318906 0.400016 -9.397174
v -5.318906 0.400016 -9.397174
v -5.562606 0.400016 -9.397174
v -5.562606 0.400016 -9.397174
v -6.893975 0.154688 -5.669047
v -6.893975 0.154688 -5.669047
v -6.893975 0.476941 -5.669047
v 3.121135 0.400014 -7.872409
v 3.121135 0.400014 -7.872409
v 3.121135 0.400014 -8.669948
v 3.121135 0.400014 -8.669948
v -6.696136 0.163229 3.014296
v -6.855577 0.159229 0.121886
v 2.761442 0.400014 -7.872409
v 2.761442 0.400014 -7.872409
v 2.761442 0.400014 -8.669948
v 2.761442 0.400014 -8.669948
v -5.318906 0.400015 -8.832593
v -5.318906 0.400015 -8.832593
v -5.318906 0.285690 -8.832593
v -5.318906 0.285690 -8.832593
v -7.430196 0.000002 -6.202128
v -7.430196 0.000002 -6.202128
v -7.515756 0.400015 -6.525755
v -5.318906 0.285690 -9.397174
v -5.318906 0.285690 -9.397174
v 3.121135 0.278826 -7.872409
v 3.121135 0.278826 -7.872409
v 2.761442 0.278826 -7.872409
v 2.761442 0.278826 -7.872409
v 7.767554 0.400014 -5.478709
v 7.767554 0.400014 -5.478709
v 7.494731 0.400014 -5.478709
v 7.494731 0.400014 -5.478709
v 3.974591 -0.045588 -4.915459
v 7.494731 0.400014 -4.888138
v 7.494731 0.400014 -4.888138
v 3.074828 0.166076 -5.402128
v -6.122356 0.278620 8.631886
v -6.122356 0.278620 8.631886
v -6.122356 0.400013 8.631886
v -6.122356 0.400013 8.631886
v 7.494731 0.329788 -4.888138
v 7.494731 0.329788 -4.888138
v -5.562606 0.400015 -8.832593
v -5.562606 0.400015 -8.832593
v -5.562606 0.400015 -8.832593
v -6.423676 0.278620 9.197077
v -6.423676 0.278620 9.197077
v -6.423676 0.278620 8.631886
v -6.423676 0.278620 8.631886
v -5.562606 0.285690 -9.397174
v -5.562606 0.285690 -9.397174
v -6.423676 0.400013 8.631886
v -6.423676 0.400013 8.631886
v 5.261260 0.000001 0.253306
v -6.382496 0.168114 4.455406
v -7.430196 0.000001 6.708746
v -7.430196 0.000001 6.708746
v -7.515756 0.400014 6.385117
v -7.515756 0.400014 6.385117
v 5.175693 0.400015 -6.525755
v -6.122356 0.278620 9.197077
v -6.122356 0.278620 9.197077
v -6.630197 0.166075 5.908747
v -6.630197 0.166075 5.908747
v -6.423676 0.400013 9.197077
v -6.423676 0.400013 9.197077
v 4.540914 -0.007682 0.167656
v -6.122356 0.400013 9.197077
v -6.122356 0.400013 9.197077
v -3.916646 0.167198 5.848576
v -5.268456 0.164883 6.113346
v -6.630197 0.488327 5.908747
v 5.261260 0.000001 -6.202128
v 5.261260 0.000001 -6.202128
vt 0.7734 -0.8927
vt 0.8854 -1.1167
vt 1.3297 -1.1167
vt 1.1616 -0.8927
vt 0.7734 -2.6250
vt 0.7734 -2.5348
vt 1.1616 -2.5348
vt 1.1616 -2.6250
vt 5.3404 -2.5348
vt 5.3404 -2.6250
vt 4.9445 -2.6250
vt 4.9445 -2.5348
vt 1.7739 -0.2129
vt 1.5499 -0.1008
vt 1.5499 -0.4968
vt 1.7739 -0.6648
vt 1.4136 -0.7564
vt 1.7739 -1.1167
vt 1.4136 -2.4755
vt 1.4136 -2.5658
vt 4.6849 -2.5658
vt 4.6849 -2.4755
vt -0.0030 -2.6808
vt -0.0030 -2.5906
vt -0.0030 -1.1167
vt -0.0030 -1.0182
vt -1.7799 -1.1167
vt -1.6298 -0.9674
vt -1.6298 -2.6219
vt -1.6298 -2.5316
vt 1.7739 2.4986
vt -0.0030 2.4986
vt -0.0362 2.2409
vt 1.4834 2.2072
vt 4.4224 -2.6263
vt 4.4224 -2.5361
vt 5.9421 -2.5354
vt 5.9421 -2.6257
vt 6.7020 -2.5351
vt 6.7020 -2.6254
vt -0.8915 2.4986
vt -0.7961 2.2577
vt -1.5744 1.4641
vt -1.4866 1.8676
vt -1.7799 2.0467
vt -1.7799 1.5948
vt -1.7799 2.4986
vt -1.5559 2.2746
vt -1.8099 -2.6250
vt -1.8099 -2.5348
vt -1.4030 -2.5354
vt -1.4030 -2.6256
vt -0.9994 -2.5340
vt -0.9994 -2.6242
vt 7.4618 -2.5348
vt 7.4618 -2.6250
vt 7.0805 -2.6247
vt 7.0805 -2.5345
vt -1.1746 2.3319
vt -1.3357 2.4986
vt 1.4320 -2.5316
vt 1.4320 -2.6219
vt -0.1895 -2.6231
vt -0.1895 -2.5329
vt -1.6190 0.6542
vt -1.7799 0.6910
vt 1.5722 0.6670
vt 1.7739 0.6910
vt 6.1082 -2.4862
vt 6.1082 -2.5764
vt 7.6484 -2.5361
vt 7.6484 -2.6263
vt 4.3246 -2.4883
vt 7.9398 -2.4883
vt 7.8492 -2.6003
vt 4.2340 -2.6003
vt -1.7799 -2.4883
vt 1.7739 -2.4883
vt 1.7499 -2.6003
vt -1.8039 -2.6003
vt 4.1320 -2.4883
vt 7.6858 -2.4883
vt 7.7098 -2.6003
vt 4.1560 -2.6003
vt -1.8039 0.7994
vt -1.8039 2.4080
vt -3.9116 3.8895
vt -3.9116 -3.3277
vt -1.8039 -1.2073
vt 1.6719 -2.6003
vt -0.1357 -2.6003
vt -0.2263 -2.4883
vt 1.5813 -2.4883
vt -2.0339 -2.4883
vt -1.9433 -2.6003
vt -3.9116 0.8697
vt -2.8428 0.8341
vt -2.6576 2.0511
vt -3.9116 0.0240
vt -2.9100 0.3925
vt -3.0753 -0.6942
vt 0.7173 0.8455
vt 0.7352 0.8455
vt 0.7352 0.8787
vt 0.7173 0.8787
vt 0.6634 0.8455
vt 0.6814 0.8455
vt 0.6814 0.9173
vt 0.6634 0.9173
vt 0.6993 0.8455
vt 0.7173 0.8455
vt 0.7173 0.8787
vt 0.6993 0.8787
vt 0.6814 0.8455
vt 0.6993 0.8455
vt 0.6993 0.9173
vt 0.6814 0.9173
vt 0.4720 0.8433
vt 0.6207 0.8433
vt 0.6207 0.9119
vt 0.4720 0.9119
vt 0.6188 0.7103
vt 0.6409 0.7103
vt 0.6409 0.7502
vt 0.6188 0.7502
vt 0.5745 0.7103
vt 0.5966 0.7103
vt 0.5966 0.7988
vt 0.5745 0.7988
vt 0.6188 0.7502
vt 0.5966 0.7502
vt 0.5966 0.7103
vt 0.6188 0.7103
vt 0.5524 0.7103
vt 0.5745 0.7103
vt 0.5745 0.7988
vt 0.5524 0.7988
vt 0.7454 0.6581
vt 0.7454 0.8142
vt 0.6579 0.8142
vt 0.6579 0.6581
vt 0.3091 0.4191
vt 0.3472 0.4191
vt 0.3472 0.5716
vt 0.3091 0.5716
vt 0.3853 0.4191
vt 0.4234 0.4191
vt 0.4234 0.5004
vt 0.3853 0.5004
vt 0.3853 0.5716
vt 0.3472 0.5716
vt 0.3472 0.4191
vt 0.3853 0.4191
vt 0.4234 0.4191
vt 0.4615 0.4191
vt 0.4615 0.5004
vt 0.4234 0.5004
vt 0.5288 0.4134
vt 0.5288 0.5825
vt 0.2117 0.5825
vt 0.2117 0.4134
vt 2.4760 -2.5683
vt 2.4760 -2.6003
vt 2.3179 -2.6003
vt 2.3179 -2.5683
vt 7.1629 -2.5683
vt 7.1629 -2.6003
vt 7.0946 -2.6003
vt 7.0946 -2.5683
vt -1.1887 -2.5683
vt -1.1887 -2.6003
vt -1.2570 -2.6003
vt 3.4299 -2.5683
vt 3.5880 -2.6003
vt 3.4299 -2.6003
vt 0.3031 0.7907
vt 0.2542 0.7907
vt 0.2542 0.6773
vt 0.3031 0.6773
vt 1.1746 -1.8077
vt 4.5658 -3.3277
vt 1.1746 -1.5844
vt 1.0739 -1.5844
vt 1.7499 -1.2073
vt 2.4757 -0.9141
vt 2.4757 -0.7487
vt 2.3993 -0.7487
vt 4.5658 0.2809
vt 1.0739 -1.8077
vt -1.1887 -2.0113
vt -1.2570 -2.0113
vt -1.2570 -1.8532
vt 2.3993 -0.9141
vt 1.8237 0.6003
vt -1.1887 -1.8532
vt 2.9530 0.9828
vt 4.5658 1.9684
vt 4.5658 3.3484
vt 2.6283 0.5066
vt 2.2465 0.5511
vt 1.8237 0.6003
vt 1.7499 2.4080
vt 4.5658 3.8895
vt -1.4137 3.0371
vt -1.4137 3.1954
vt -1.4981 3.1954
vt -1.4981 3.0371
vn -0.0563 -0.6122 0.7887
vn 0.0000 -0.9791 0.2033
vn -0.0682 -0.9963 0.0517
vn -0.0940 -0.9865 0.1343
vn -0.0818 0.0000 0.9966
vn -0.2603 0.0000 0.9655
vn -0.2283 0.0000 0.9736
vn -0.9999 0.0000 0.0148
vn -0.9999 0.0000 0.0142
vn -0.9748 0.0000 0.2231
vn -0.9673 0.0000 0.2536
vn -0.1957 -0.9805 -0.0157
vn -0.2200 -0.9749 -0.0352
vn -0.1194 -0.9923 0.0313
vn -0.2033 -0.9791 -0.0000
vn 0.0297 -0.9976 0.0633
vn 0.0025 -0.9998 0.0207
vn -0.7119 0.0000 0.7023
vn -0.7112 0.0000 0.7030
vn -0.0634 0.0000 0.9980
vn -0.0801 -0.3765 0.9230
vn -0.0699 -0.7280 0.6820
vn 0.1613 -0.9759 0.1470
vn 0.1605 -0.9795 0.1215
vn 0.0312 0.0000 0.9995
vn 0.0335 0.0010 0.9994
vn -0.0828 -0.9932 -0.0820
vn -0.0010 -0.9824 -0.1869
vn -0.0015 -0.9839 -0.1786
vn -0.0778 -0.9938 -0.0795
vn -0.0222 0.0000 -0.9998
vn -0.0227 -0.0001 -0.9997
vn -0.1090 0.0021 -0.9940
vn -0.1075 0.0000 -0.9942
vn -0.0171 -0.9774 -0.2107
vn -0.0120 -0.9812 -0.1927
vn 0.2005 -0.9796 -0.0111
vn 0.1554 -0.9877 -0.0150
vn 0.1614 -0.9869 -0.0060
vn 0.2182 -0.9759 -0.0027
vn 0.0989 -0.9907 -0.0938
vn 0.1353 -0.9876 -0.0795
vn 0.9858 0.0000 0.1680
vn 0.9997 0.0000 -0.0229
vn 0.9997 0.0000 -0.0226
vn 0.9910 0.0000 -0.1342
vn 0.9909 0.0000 -0.1344
vn 0.1486 0.0000 -0.9889
vn -0.0221 0.0000 -0.9998
vn 0.0014 -0.9694 -0.2453
vn 0.0167 -0.9717 -0.2356
vn 1.0000 0.0023 -0.0057
vn 1.0000 0.0000 -0.0066
vn 0.9995 0.0000 -0.0309
vn 0.2629 -0.9648 -0.0012
vn 0.2730 -0.9620 -0.0003
vn -0.0106 -0.9999 0.0109
vn -0.0017 -0.9999 0.0157
vn -0.9999 0.0000 -0.0147
vn -0.9999 0.0000 -0.0138
vn -0.9983 0.0000 -0.0575
vn -0.9779 -0.2092 -0.0000
vn -0.9778 -0.2094 0.0002
vn 0.0000 0.6290 0.7774
vn -0.0000 -0.6290 -0.7774
vn 0.0002 -0.9814 -0.1918
vn -0.0000 -0.9737 -0.2280
vn 0.0008 -1.0000 0.0011
vn 0.0004 -1.0000 0.0005
vn 0.0003 -1.0000 0.0004
vn 0.0151 -0.9998 -0.0150
vn 0.0021 -1.0000 0.0086
vn 0.9862 0.1654 -0.0027
vn 0.9105 -0.4127 -0.0252
vn 0.9152 -0.4029 -0.0104
vn 0.9779 0.2092 0.0000
vn 0.9797 0.1967 0.0373
vn 0.9701 0.2395 0.0396
vn -0.0188 -0.9998 -0.0018
vn -0.0014 -0.9994 -0.0358
vn 0.0014 -0.9998 0.0182
vn -0.0008 -1.0000 -0.0000
vn 0.0380 -0.9989 -0.0285
vn 0.0119 -0.9964 -0.0838
vn -0.0341 -0.9993 0.0165
vn -0.0000 0.0000 1.0000
vn 1.0000 0.0000 0.0000
vn -0.0000 0.0000 -1.0000
vn -1.0000 0.0000 0.0000
vn 0.0000 -1.0000 -0.0000
vn -0.3188 -0.9378 0.1376
vn -0.4177 -0.8905 0.1803
vn -0.1194 -0.9915 0.0516
vn -0.0210 -0.9961 -0.0854
vn 0.0855 -0.9963 -0.0000
vn 0.0111 -0.9998 0.0157
vn 0.0619 -0.9966 -0.0544
vn -0.0303 -0.9651 -0.2599
vn -0.0972 -0.9926 -0.0722
vn -0.0235 -0.9996 0.0186
g UModeler_Object.001_UModeler_Object.001_UModeler_Grid
usemtl UModeler_Grid
s 1
f 1/1/1 2/2/2 3/3/3
f 163/4/4 1/1/1 3/3/3
f 5/5/5 1/6/1 4/7/6
f 6/8/7 5/5/5 4/7/6
f 115/9/8 8/10/9 9/11/10
f 10/12/11 115/9/8 9/11/10
f 11/13/12 7/14/13 116/15/14
f 12/16/15 11/13/12 116/15/14
f 160/17/16 163/4/4 3/3/3
f 200/18/17 160/17/16 3/3/3
f 13/19/18 15/20/19 6/8/7
f 4/7/6 13/19/18 6/8/7
f 15/21/19 13/22/18 10/12/11
f 9/11/10 15/21/19 10/12/11
f 200/18/17 12/16/15 116/15/14
f 160/17/16 200/18/17 116/15/14
f 16/23/20 17/24/21 1/6/1
f 5/5/5 16/23/20 1/6/1
f 18/25/22 2/2/2 1/1/1
f 17/26/21 18/25/22 1/1/1
f 148/27/23 18/25/22 17/26/21
f 131/28/24 148/27/23 17/26/21
f 21/29/25 130/30/26 17/24/21
f 16/23/20 21/29/25 17/24/21
f 110/31/27 23/32/28 121/33/29
f 103/34/30 110/31/27 121/33/29
f 104/35/31 102/36/31 24/37/32
f 27/38/31 104/35/31 24/37/32
f 27/38/31 24/37/32 197/39/33
f 29/40/34 27/38/31 197/39/33
f 23/32/28 30/41/35 28/42/36
f 121/33/29 23/32/28 28/42/36
f 31/43/37 32/44/38 33/45/39
f 34/46/40 31/43/37 33/45/39
f 35/47/41 33/45/39 32/44/38
f 191/48/42 35/47/41 32/44/38
f 199/49/43 36/50/43 182/51/44
f 38/52/45 199/49/43 182/51/44
f 137/53/46 39/54/47 38/52/45
f 182/51/44 137/53/46 38/52/45
f 190/55/48 37/56/48 40/57/31
f 41/58/49 190/55/48 40/57/31
f 29/40/34 197/39/33 41/58/49
f 40/57/31 29/40/34 41/58/49
f 191/48/42 198/59/50 42/60/51
f 35/47/41 191/48/42 42/60/51
f 30/41/35 42/60/51 198/59/50
f 28/42/36 30/41/35 198/59/50
f 20/61/52 132/62/53 43/63/54
f 44/64/54 20/61/52 43/63/54
f 44/64/54 43/63/54 39/54/47
f 137/53/46 44/64/54 39/54/47
f 131/28/24 138/65/55 45/66/56
f 148/27/23 131/28/24 45/66/56
f 138/65/55 31/43/37 34/46/40
f 45/66/56 138/65/55 34/46/40
f 46/67/57 7/14/13 11/13/12
f 181/68/58 46/67/57 11/13/12
f 194/69/59 48/70/60 8/10/9
f 115/9/8 194/69/59 8/10/9
f 103/34/30 46/67/57 181/68/58
f 110/31/27 103/34/30 181/68/58
f 25/71/61 26/72/61 48/70/60
f 194/69/59 25/71/61 48/70/60
f 147/73/62 184/74/62 186/75/62
f 54/76/63 147/73/62 186/75/62
f 183/77/64 109/78/64 111/79/64
f 53/80/64 183/77/64 111/79/64
f 14/81/65 19/82/65 149/83/66
f 187/84/67 14/81/65 149/83/66
f 57/85/68 185/86/69 51/87/70
f 57/85/71 50/88/72 149/89/66
f 56/90/73 113/91/74 47/92/75
f 201/93/76 56/90/73 47/92/75
f 22/94/77 47/92/75 113/91/74
f 55/95/78 22/94/77 113/91/74
f 60/96/79 61/97/80 62/98/81
f 51/87/82 60/96/79 62/98/81
f 61/97/80 57/85/71 62/98/81
f 60/96/79 63/99/83 64/100/84
f 61/97/80 60/96/79 64/100/84
f 64/100/84 57/85/71 61/97/80
f 65/101/85 64/100/84 63/99/83
f 64/100/84 65/101/85 57/85/71
f 65/101/85 50/88/72 57/85/71
f 63/99/83 50/88/72 65/101/85
f 105/102/86 107/103/86 161/104/86
f 69/105/86 105/102/86 161/104/86
f 70/106/87 156/107/87 108/108/87
f 106/109/87 70/106/87 108/108/87
f 119/110/88 158/111/88 71/112/88
f 117/113/88 119/110/88 71/112/88
f 169/114/89 162/115/89 159/116/89
f 120/117/89 169/114/89 159/116/89
f 118/118/90 66/119/90 168/120/90
f 72/121/90 118/118/90 168/120/90
f 152/122/86 75/123/86 139/124/86
f 155/125/86 152/122/86 139/124/86
f 122/126/87 135/127/87 133/128/87
f 153/129/87 122/126/87 133/128/87
f 124/130/88 81/131/88 136/132/88
f 123/133/88 124/130/88 136/132/88
f 77/134/89 140/135/89 142/136/89
f 125/137/89 77/134/89 142/136/89
f 78/138/90 74/139/90 154/140/90
f 80/141/90 78/138/90 154/140/90
f 173/142/89 83/143/89 179/144/89
f 175/145/89 173/142/89 179/144/89
f 188/146/86 87/147/86 193/148/86
f 174/149/86 188/146/86 193/148/86
f 164/150/87 167/151/87 195/152/87
f 189/153/87 164/150/87 195/152/87
f 85/154/88 84/155/88 89/156/88
f 165/157/88 85/154/88 89/156/88
f 86/158/90 82/159/90 176/160/90
f 88/161/90 86/158/90 176/160/90
f 150/162/87 91/163/87 143/164/87
f 145/165/87 150/162/87 143/164/87
f 94/166/88 128/167/88 127/168/88
f 151/169/88 94/166/88 127/168/88
f 93/170/86 92/171/86 171/172/86
f 177/173/89 172/174/89 95/175/89
f 146/176/91 96/177/92 178/178/93
f 90/179/90 146/176/91 178/178/93
f 79/180/90 49/181/90 134/182/90
f 76/183/90 134/182/90 187/184/67
f 134/182/90 49/181/90 187/184/67
f 187/184/67 49/181/90 157/185/90
f 157/185/90 49/181/90 67/186/90
f 68/187/90 67/186/90 58/188/90
f 67/186/90 49/181/90 58/188/90
f 49/181/90 79/180/90 141/189/90
f 49/181/90 141/189/90 50/88/72
f 50/88/72 141/189/90 76/183/90
f 50/88/72 76/183/90 187/184/67
f 50/88/72 187/184/67 126/190/90
f 50/88/72 126/190/90 129/191/90
f 50/88/72 129/191/90 170/192/90
f 50/88/72 170/192/90 149/89/66
f 187/184/67 157/185/90 73/193/90
f 187/184/67 73/193/90 68/187/90
f 68/187/90 58/188/90 114/194/90
f 187/184/67 68/187/90 114/194/90
f 126/190/90 187/184/67 144/195/90
f 144/195/90 187/184/67 170/192/90
f 170/192/90 187/184/67 149/89/66
f 97/196/94 98/197/95 99/198/96
f 58/188/97 98/197/95 97/196/94
f 100/199/98 58/188/97 97/196/94
f 97/196/94 101/200/98 100/199/98
f 59/201/99 101/200/98 97/196/94
f 59/201/99 97/196/94 112/202/100
f 112/202/100 97/196/94 99/198/96
f 112/202/100 99/198/96 52/203/90
f 112/202/100 52/203/90 185/86/69
f 185/86/69 52/203/90 166/204/90
f 166/204/90 52/203/90 196/205/90
f 196/205/90 52/203/90 192/206/90
f 192/206/90 52/203/90 51/87/70
f 185/86/69 166/204/90 180/207/90
f 185/86/69 180/207/90 192/206/90
f 185/86/69 192/206/90 51/87/70
l 50 51
l 52 58
